<?xml version="1.0" standalone="no"?>
<!DOCTYPE svg PUBLIC "-//W3C//DTD SVG 20010904//EN"
 "http://www.w3.org/TR/2001/REC-SVG-20010904/DTD/svg10.dtd">
<svg version="1.0" xmlns="http://www.w3.org/2000/svg"
 width="251.000000pt" height="201.000000pt" viewBox="0 0 251.000000 201.000000"
 preserveAspectRatio="xMidYMid meet">

<g transform="translate(0.000000,201.000000) scale(0.100000,-0.100000)"
fill="#000000" stroke="none">
<path d="M1130 1926 c0 -8 -5 -16 -10 -18 -6 -2 -13 -15 -15 -30 -4 -22 -1
-27 17 -31 22 -4 22 -4 -2 -6 -23 -2 -24 -3 -5 -11 17 -7 14 -9 -15 -10 -29
-1 -32 -3 -15 -10 18 -8 17 -9 -7 -9 -16 -1 -28 -5 -28 -10 0 -5 12 -12 28
-14 22 -3 19 -5 -13 -7 l-40 -3 40 -7 40 -7 -47 -2 c-57 -1 -64 -18 -10 -24
29 -3 25 -4 -17 -5 -62 -2 -60 -18 4 -25 34 -3 32 -4 -15 -5 -40 -2 -51 -5
-40 -12 13 -8 12 -10 -2 -10 -10 0 -18 -4 -18 -10 0 -5 21 -10 46 -10 25 0 43
-4 40 -9 -3 -4 -28 -8 -56 -7 -64 3 -66 -12 -2 -17 46 -3 46 -3 -10 -5 -72 -2
-76 -20 -5 -25 49 -3 48 -3 -15 -5 -86 -3 -102 -22 -19 -22 34 0 61 -3 61 -7
0 -5 -30 -8 -67 -8 -44 0 -68 -4 -70 -12 -4 -10 13 -13 63 -13 90 0 72 -18
-21 -22 -89 -4 -87 -21 2 -29 l68 -5 -82 -2 c-46 -1 -83 -6 -83 -11 0 -14 21
-18 75 -15 28 1 55 -1 60 -4 6 -4 -33 -9 -85 -12 -116 -6 -122 -23 -10 -30 65
-4 78 -8 71 -19 -7 -10 -29 -14 -84 -12 -47 1 -78 -2 -82 -9 -12 -19 2 -23 75
-21 71 2 80 -3 58 -31 -10 -12 -39 -18 -118 -23 -58 -4 -107 -9 -109 -10 -1
-2 0 -8 4 -14 4 -7 45 -11 101 -11 52 0 94 -4 94 -9 0 -9 -104 -21 -182 -21
-52 0 -66 -11 -43 -34 13 -13 32 -15 107 -9 68 5 89 3 84 -5 -5 -8 -45 -12
-119 -12 -116 -1 -147 -10 -147 -44 0 -14 15 -16 116 -16 74 0 113 -4 109 -10
-4 -6 -53 -10 -115 -10 -101 0 -110 -2 -124 -22 -31 -44 -24 -48 94 -48 93 0
109 -2 104 -15 -5 -12 -28 -15 -123 -15 -110 0 -119 -2 -139 -23 -26 -27 -29
-62 -6 -71 9 -3 58 -6 111 -6 92 0 94 -1 91 -22 -3 -22 -7 -23 -140 -28 -122
-4 -139 -7 -152 -25 -9 -11 -16 -32 -16 -47 0 -34 11 -37 148 -41 l102 -2 -15
-22 c-16 -22 -21 -23 -183 -23 -136 0 -172 -3 -190 -16 -44 -30 -66 -106 -40
-132 8 -8 61 -12 171 -12 l159 0 -14 -23 c-15 -21 -22 -22 -209 -27 l-193 -5
-29 -46 c-31 -50 -38 -106 -16 -120 8 -5 89 -9 182 -9 92 0 167 -2 167 -5 0
-3 -11 -28 -25 -55 -29 -57 -30 -60 -11 -60 7 0 37 53 69 123 281 621 366 801
373 794 2 -2 -42 -111 -97 -243 -56 -131 -143 -338 -194 -459 l-92 -220 20
-42 21 -43 42 111 c24 61 44 113 46 114 2 2 89 6 193 9 105 4 253 11 330 16
77 6 286 17 465 25 179 8 350 17 380 21 l55 5 55 -145 c30 -80 58 -146 61
-146 3 0 14 17 23 38 l17 37 -86 205 c-48 113 -104 246 -125 295 -20 50 -67
162 -104 249 -37 87 -65 160 -63 162 6 6 123 -241 280 -589 128 -285 167 -356
160 -297 -1 10 -21 55 -43 101 -22 45 -40 84 -40 86 0 1 49 3 109 3 59 0 136
3 170 6 56 6 61 9 61 31 0 38 -70 145 -89 138 -9 -4 -85 -9 -169 -12 -126 -5
-156 -4 -163 8 -23 36 -13 39 141 39 171 0 170 -1 124 77 l-26 44 -156 -2
c-139 -2 -157 0 -160 14 -3 15 13 17 153 17 180 0 182 1 144 82 l-23 50 -172
-7 c-162 -7 -171 -7 -176 11 -3 11 -9 26 -12 35 -6 14 10 17 131 23 76 4 141
10 145 14 4 4 -1 22 -12 40 l-20 32 -150 0 c-93 0 -150 4 -150 10 0 6 50 10
130 10 142 0 148 3 113 56 l-16 25 -134 -6 c-90 -4 -133 -3 -133 4 0 7 37 11
100 11 107 0 114 4 89 51 -9 18 -20 20 -107 19 -135 -2 -146 2 -25 9 56 3 105
9 109 14 4 4 0 15 -10 25 -14 14 -36 17 -121 17 -130 0 -143 19 -15 23 l89 3
-11 25 c-12 25 -13 26 -108 22 -79 -2 -95 -1 -95 12 0 12 18 16 90 18 111 3
128 8 100 28 -15 11 -41 13 -125 8 -75 -5 -102 -3 -95 4 6 6 46 12 89 14 52 2
81 7 84 16 2 7 -5 12 -18 12 -19 0 -21 2 -9 16 21 26 -6 33 -103 27 -61 -4
-88 -3 -88 5 0 7 29 12 77 14 50 2 78 7 81 16 3 9 -20 12 -90 14 -57 1 -72 3
-38 5 71 4 100 11 100 23 0 7 -29 8 -80 4 -57 -5 -80 -4 -80 5 0 6 3 10 8 10
4 -1 33 -1 65 0 62 1 80 21 20 22 -25 0 -32 3 -20 7 31 13 -16 42 -71 44 l-47
1 43 4 c23 2 42 8 42 14 0 5 -5 9 -11 9 -5 0 -7 5 -4 10 4 6 -14 11 -47 12
-47 1 -48 2 -13 5 64 7 66 23 4 25 -50 1 -51 2 -11 5 53 5 45 23 -11 24 l-42
2 35 7 35 7 -40 3 c-29 2 -33 4 -15 7 34 6 50 23 21 23 -12 0 -19 4 -16 10 4
6 -8 10 -27 11 -31 1 -32 1 -8 9 l25 8 -25 2 c-18 2 -20 4 -7 7 12 3 16 12 12
31 -2 15 -9 28 -15 30 -5 2 -10 10 -10 18 0 11 -28 14 -155 14 -127 0 -155 -3
-155 -14z m173 -63 c-13 -2 -33 -2 -45 0 -13 2 -3 4 22 4 25 0 35 -2 23 -4z
m70 -20 c-18 -2 -48 -2 -65 0 -18 2 -4 4 32 4 36 0 50 -2 33 -4z m-20 -20
c-34 -2 -93 -2 -130 0 -37 2 -9 3 62 3 72 0 102 -1 68 -3z m-70 -20 c-13 -2
-33 -2 -45 0 -13 2 -3 4 22 4 25 0 35 -2 23 -4z m85 -30 c-43 -2 -113 -2 -155
0 -43 1 -8 3 77 3 85 0 120 -2 78 -3z m-145 -20 c-18 -2 -48 -2 -65 0 -18 2
-4 4 32 4 36 0 50 -2 33 -4z m195 -10 c-16 -2 -40 -2 -55 0 -16 2 -3 4 27 4
30 0 43 -2 28 -4z m-75 -20 c-40 -2 -107 -2 -150 0 -43 1 -10 3 72 3 83 0 118
-2 78 -3z m104 1 c-3 -3 -12 -4 -19 -1 -8 3 -5 6 6 6 11 1 17 -2 13 -5z m18
-29 c6 -2 -73 -3 -175 -4 -102 0 -176 4 -166 8 19 7 319 4 341 -4z m4 -31 c2
-2 -80 -4 -183 -4 -120 0 -185 4 -181 10 6 9 354 4 364 -6z m1 -20 c-36 -7
-379 -10 -374 -2 3 4 92 7 197 7 106 -1 185 -3 177 -5z m-137 -31 c-45 -2
-122 -2 -170 0 -48 1 -11 3 82 3 94 0 133 -2 88 -3z m164 1 c-3 -3 -12 -4 -19
-1 -8 3 -5 6 6 6 11 1 17 -2 13 -5z m70 0 c-3 -3 -12 -4 -19 -1 -8 3 -5 6 6 6
11 1 17 -2 13 -5z m-359 -31 c-27 -2 -69 -2 -95 0 -27 2 -5 3 47 3 52 0 74 -1
48 -3z m260 0 c-26 -2 -71 -2 -100 0 -29 2 -8 3 47 3 55 0 79 -1 53 -3z m109
1 c-3 -3 -12 -4 -19 -1 -8 3 -5 6 6 6 11 1 17 -2 13 -5z m40 0 c-3 -3 -12 -4
-19 -1 -8 3 -5 6 6 6 11 1 17 -2 13 -5z m-107 -30 c-32 -7 -460 -9 -460 -2 0
5 107 7 238 7 130 -1 230 -3 222 -5z m24 -33 c10 -15 -43 -19 -262 -21 -117 0
-220 -4 -228 -7 -12 -4 -15 -2 -12 8 4 11 44 15 199 19 107 3 217 7 246 8 28
1 54 -2 57 -7z m11 -50 c-4 -7 -91 -11 -266 -11 -143 0 -258 3 -255 8 2 4 122
8 266 10 186 3 260 0 255 -7z m25 -41 c0 -6 -66 -10 -187 -10 -104 0 -232 -3
-285 -7 -68 -4 -98 -3 -98 5 0 15 45 17 328 20 161 2 242 -1 242 -8z m103 3
c-7 -2 -21 -2 -30 0 -10 3 -4 5 12 5 17 0 24 -2 18 -5z m85 0 c-10 -2 -28 -2
-40 0 -13 2 -5 4 17 4 22 1 32 -1 23 -4z m-173 -44 c4 -6 5 -12 4 -14 -2 -1
-141 -6 -308 -10 -255 -6 -303 -5 -299 6 4 11 45 15 189 19 350 10 408 10 414
-1z m25 -63 c0 -16 -18 -17 -419 -36 -128 -6 -235 -9 -238 -6 -3 2 -1 12 4 21
8 14 46 17 304 22 162 3 296 7 298 9 11 10 51 2 51 -10z m30 -79 c0 -11 -43
-15 -202 -20 -303 -10 -520 -9 -513 3 4 6 76 10 178 11 95 1 235 5 312 8 231
12 225 12 225 -2z m20 -67 c0 -5 -26 -10 -57 -11 -32 0 -65 -2 -74 -4 -9 -1
-154 -6 -323 -10 -225 -6 -306 -5 -306 4 0 8 53 11 178 12 148 1 450 10 555
17 15 1 27 -2 27 -8z m33 -74 c9 -22 -66 -26 -462 -26 -247 0 -362 3 -355 10
6 6 148 13 370 17 197 3 361 7 363 9 12 11 79 2 84 -10z m41 -101 c4 -12 -5
-15 -47 -15 -29 0 -200 -5 -382 -11 -356 -11 -477 -7 -468 17 5 15 76 17 624
22 229 2 268 0 273 -13z m49 -127 c13 -30 12 -34 -6 -41 -52 -20 -851 -44
-945 -29 -62 11 -67 14 -53 40 9 18 28 19 323 26 172 4 365 13 428 20 63 7
143 14 177 15 62 1 63 1 76 -31z m69 -176 c5 -18 -2 -20 -76 -26 -391 -31
-1032 -34 -1062 -4 -2 3 -2 12 2 21 5 15 40 17 313 19 168 2 421 4 562 6 245
2 257 2 261 -16z m66 -172 c10 -28 9 -30 -21 -34 -83 -13 -115 -16 -382 -31
-44 -2 -261 -8 -482 -11 -363 -6 -403 -5 -403 9 0 8 6 22 14 30 16 15 76 18
691 38 288 9 485 18 562 28 6 0 16 -12 21 -29z"/>
<path d="M2061 1907 c-13 -21 -12 -21 5 -5 10 10 16 20 13 22 -3 3 -11 -5 -18
-17z"/>
<path d="M2181 1914 c0 -11 3 -14 6 -6 3 7 2 16 -1 19 -3 4 -6 -2 -5 -13z"/>
<path d="M2220 1921 c0 -6 4 -13 10 -16 6 -3 7 1 4 9 -7 18 -14 21 -14 7z"/>
<path d="M2321 1914 c0 -11 3 -14 6 -6 3 7 2 16 -1 19 -3 4 -6 -2 -5 -13z"/>
<path d="M1961 1904 c0 -11 3 -14 6 -6 3 7 2 16 -1 19 -3 4 -6 -2 -5 -13z"/>
<path d="M1990 1912 c0 -5 7 -9 15 -9 8 0 12 4 9 9 -3 4 -9 8 -15 8 -5 0 -9
-4 -9 -8z"/>
<path d="M2316 1843 c-6 -14 -5 -15 5 -6 7 7 10 15 7 18 -3 3 -9 -2 -12 -12z"/>
<path d="M2180 1840 c0 -5 5 -10 10 -10 6 0 10 5 10 10 0 6 -4 10 -10 10 -5 0
-10 -4 -10 -10z"/>
</g>
</svg>
